<?xml version="1.0" standalone="no"?>
<!DOCTYPE svg PUBLIC "-//W3C//DTD SVG 20010904//EN"
 "http://www.w3.org/TR/2001/REC-SVG-20010904/DTD/svg10.dtd">
<svg version="1.0" xmlns="http://www.w3.org/2000/svg"
 width="260.000000pt" height="260.000000pt" viewBox="0 0 260.000000 260.000000"
 preserveAspectRatio="xMidYMid meet">
<metadata>
Created by potrace 1.14, written by Peter Selinger 2001-2017
</metadata>
<g transform="translate(0.000000,260.000000) scale(0.100000,-0.100000)"
fill="#000000" stroke="none">
<path d="M1160 2180 c-19 -4 -50 -10 -69 -14 -67 -13 -194 -69 -266 -117 -165
-110 -289 -295 -336 -499 -6 -25 -13 -54 -16 -65 -3 -11 -7 -83 -9 -160 -6
-231 38 -391 159 -579 6 -11 39 -48 72 -84 157 -169 367 -255 611 -251 430 7
726 256 815 683 26 124 21 345 -9 461 -71 269 -221 457 -444 559 -40 18 -98
39 -128 46 -30 7 -70 16 -88 21 -40 9 -244 9 -292 -1z"/>
</g>
</svg>
